<?xml version="1.0" encoding="UTF-8" standalone="no"?>
<!DOCTYPE svg PUBLIC "-//W3C//DTD SVG 1.1//EN" "http://www.w3.org/Graphics/SVG/1.1/DTD/svg11.dtd">
<svg width="100%" height="100%" viewBox="0 0 800 800" version="1.1" xmlns="http://www.w3.org/2000/svg" xmlns:xlink="http://www.w3.org/1999/xlink" xml:space="preserve" xmlns:serif="http://www.serif.com/" style="fill-rule:evenodd;clip-rule:evenodd;stroke-linejoin:round;stroke-miterlimit:2;">
    <path d="M400.861,156.559C267.102,156.559 158.28,265.38 158.28,399.141C158.28,441.786 169.503,483.731 190.741,520.441C194.309,526.608 202.203,528.714 208.372,525.15C214.539,521.581 216.648,513.689 213.081,507.519C194.114,474.731 184.087,437.255 184.087,399.141C184.087,279.611 281.331,182.367 400.861,182.367C520.391,182.367 617.636,279.611 617.636,399.141C617.636,518.67 520.391,615.914 400.861,615.914C340.719,615.914 284.812,591.856 243.442,548.172C238.542,542.998 230.375,542.775 225.2,547.677C220.027,552.577 219.803,560.744 224.705,565.919C271,614.8 333.559,641.72 400.861,641.72C534.62,641.72 643.442,532.9 643.442,399.139C643.442,265.378 534.62,156.559 400.861,156.559Z" style="fill-rule:nonzero;"/>
    <path d="M400.861,555.698C487.189,555.698 557.42,485.467 557.42,399.139C557.42,312.811 487.188,242.581 400.861,242.581C314.534,242.581 244.302,312.813 244.302,399.139C244.302,485.466 314.533,555.698 400.861,555.698ZM400.861,268.388C472.959,268.388 531.614,327.042 531.614,399.141C531.614,471.239 472.959,529.894 400.861,529.894C328.762,529.894 270.108,471.239 270.108,399.141C270.108,327.042 328.763,268.388 400.861,268.388Z" style="fill-rule:nonzero;"/>
    <path d="M621.075,122.15C589.77,122.15 564.302,147.619 564.302,178.923C564.302,210.228 589.77,235.697 621.075,235.697C652.38,235.697 677.848,210.228 677.848,178.923C677.848,147.619 652.38,122.15 621.075,122.15ZM621.075,209.892C604,209.892 590.108,196 590.108,178.925C590.108,161.85 604,147.958 621.075,147.958C638.15,147.958 652.042,161.85 652.042,178.925C652.042,196 638.15,209.892 621.075,209.892Z" style="fill-rule:nonzero;"/>
    <path d="M800,178.064C800,79.723 720.277,0 621.936,0L178.064,0C79.723,0 0,79.723 0,178.064L0,621.934C0,720.277 79.723,800 178.064,800L621.934,800C720.277,800 800,720.277 800,621.936L800,178.064ZM774.194,621.936C774.194,706.025 706.025,774.194 621.936,774.194L178.064,774.194C93.975,774.194 25.806,706.025 25.806,621.936L25.806,178.064C25.806,93.975 93.975,25.806 178.064,25.806L621.934,25.806C706.023,25.806 774.192,93.975 774.192,178.064L774.192,621.936L774.194,621.936Z" style="fill-rule:nonzero;"/>
    <path d="M739.784,183.227C739.784,115.291 684.709,60.216 616.773,60.216L183.227,60.216C115.291,60.216 60.216,115.291 60.216,183.227L60.216,616.775C60.216,684.711 115.291,739.786 183.227,739.786L616.775,739.786C684.711,739.786 739.786,684.711 739.786,616.775L739.786,183.227L739.784,183.227ZM713.978,616.775C713.978,670.459 670.458,713.98 616.773,713.98L183.227,713.98C129.542,713.98 86.022,670.459 86.022,616.775L86.022,183.227C86.022,129.542 129.542,86.022 183.227,86.022L616.775,86.022C670.459,86.022 713.98,129.542 713.98,183.227L713.98,616.775L713.978,616.775Z" style="fill-rule:nonzero;"/>
</svg>
